<svg width="33" height="32" viewBox="0 0 33 32" fill="none" xmlns="http://www.w3.org/2000/svg">
<path d="M6.13917 9.35646C3.17282 12.6788 2.28291 16.2384 3.46945 20.0353C4.65599 23.8322 7.02907 26.7986 10.5887 28.9344C15.3349 30.1209 20.081 29.5276 24.8272 27.1546C29.5733 24.7815 31.3531 21.2219 30.1666 16.4757C28.9801 10.543 26.0137 6.39011 21.2675 4.01703C16.5214 1.64395 11.4786 3.42376 6.13917 9.35646Z" fill="url(#paint0_linear_9689_28)" stroke="#FCBF49" stroke-width="4.49258"/>
<path opacity="0.6" d="M8.80863 11.1363C6.43555 13.2721 5.54565 15.6451 6.13892 18.2555C6.73219 20.8659 8.512 22.6457 11.4783 23.595C14.4447 24.1882 17.7077 23.8916 21.2673 22.7051C24.8269 21.5185 26.3101 19.4421 25.7168 16.4757C25.1236 12.3228 23.0471 9.35648 19.4875 7.57667C15.9279 5.79686 12.3683 6.9834 8.80863 11.1363Z" fill="#FFF3B8"/>
<path d="M10.5898 25.3748C14.1495 26.5613 18.3024 26.5613 23.0485 25.3748C27.7947 24.1882 29.5745 22.4084 28.3879 20.0353C27.2014 21.2219 25.4216 22.4084 23.0485 23.595C20.6754 24.7815 16.5225 25.3748 10.5898 25.3748Z" fill="url(#paint1_linear_9689_28)"/>
<path opacity="0.8" d="M14.1499 17.5436C14.7397 17.5436 15.2178 17.0655 15.2178 16.4757C15.2178 15.8859 14.7397 15.4078 14.1499 15.4078C13.5601 15.4078 13.082 15.8859 13.082 16.4757C13.082 17.0655 13.5601 17.5436 14.1499 17.5436Z" fill="#FCBF49"/>
<path opacity="0.8" d="M17.7085 19.3234C18.2983 19.3234 18.7764 18.8453 18.7764 18.2555C18.7764 17.6657 18.2983 17.1876 17.7085 17.1876C17.1187 17.1876 16.6406 17.6657 16.6406 18.2555C16.6406 18.8453 17.1187 19.3234 17.7085 19.3234Z" fill="#FCBF49"/>
<path opacity="0.8" d="M21.271 17.5436C21.8608 17.5436 22.3389 17.0655 22.3389 16.4757C22.3389 15.8859 21.8608 15.4078 21.271 15.4078C20.6812 15.4078 20.2031 15.8859 20.2031 16.4757C20.2031 17.0655 20.6812 17.5436 21.271 17.5436Z" fill="#FCBF49"/>
<path opacity="0.5" d="M14.1523 16.4757L17.712 18.2555L21.2716 16.4757" stroke="#F77F00" stroke-width="1.12315"/>
<defs>
<linearGradient id="paint0_linear_9689_28" x1="2.96094" y1="3" x2="2653.79" y2="2757.15" gradientUnits="userSpaceOnUse">
<stop stop-color="#FFE066"/>
<stop offset="0.5" stop-color="#FFD23F"/>
<stop offset="1" stop-color="#FCBF49"/>
</linearGradient>
<linearGradient id="paint1_linear_9689_28" x1="10.5898" y1="20.0353" x2="10.5898" y2="642.969" gradientUnits="userSpaceOnUse">
<stop stop-color="#F77F00" stop-opacity="0.3"/>
<stop offset="1" stop-color="#D62828" stop-opacity="0.1"/>
</linearGradient>
</defs>
</svg>
