<svg width="34" height="33" viewBox="0 0 34 33" fill="none" xmlns="http://www.w3.org/2000/svg">
<path d="M33.6538 5.01434C33.3042 4.84507 33.1537 5.16764 32.9493 5.33151C32.8794 5.38438 32.8202 5.45308 32.7611 5.51651C32.2502 6.0557 31.6533 6.41002 30.8735 6.36766C29.7334 6.30418 28.76 6.65849 27.8995 7.52026C27.7166 6.4576 27.109 5.82307 26.184 5.41606C25.7 5.20455 25.2106 4.99304 24.8718 4.53305C24.6351 4.20537 24.5706 3.84055 24.4523 3.48101C24.377 3.26428 24.3017 3.04215 24.0489 3.00513C23.7746 2.96288 23.6671 3.19012 23.5595 3.38056C23.1293 4.15779 22.9626 5.01428 22.9787 5.88133C23.0163 7.83228 23.8499 9.38655 25.5063 10.4916C25.6945 10.6185 25.7429 10.7453 25.6838 10.9304C25.5708 11.3111 25.4363 11.6811 25.3181 12.0618C25.2427 12.3051 25.1298 12.3579 24.8663 12.2521C23.9574 11.8768 23.1722 11.3216 22.4785 10.6502C21.3008 9.52408 20.2359 8.28164 18.9077 7.30881C18.5958 7.08146 18.2838 6.87006 17.9611 6.66905C16.6059 5.36854 18.1386 4.30048 18.4935 4.17369C18.8646 4.0415 18.6226 3.58674 17.4233 3.59213C16.224 3.59736 15.127 3.99392 13.7288 4.52261C13.5244 4.60193 13.3092 4.66002 13.0888 4.7076C11.8196 4.46974 10.502 4.41677 9.12528 4.57019C6.53313 4.85563 4.46274 6.06638 2.94081 8.13362C1.11239 10.6185 0.682171 13.4416 1.20921 16.3865C1.76314 19.4899 3.36568 22.0594 5.82877 24.0686C8.38328 26.1515 11.325 27.1719 14.6807 26.9763C16.7189 26.86 18.9884 26.5904 21.5482 24.4492C22.1935 24.7665 22.8712 24.8932 23.9952 24.9884C24.861 25.0677 25.6946 24.9462 26.3399 24.814C27.3509 24.6025 27.2811 23.6773 26.9154 23.5081C23.9522 22.1441 24.6028 22.6992 24.0113 22.2498C25.5171 20.4893 27.7866 18.6599 28.6739 12.7332C28.7438 12.2627 28.6847 11.9666 28.6739 11.5859C28.6685 11.3533 28.7223 11.2635 28.9912 11.237C29.7334 11.1524 30.454 10.9516 31.1155 10.592C33.0354 9.55582 33.8097 7.8534 33.9926 5.81262C34.0195 5.50067 33.9872 5.17809 33.6538 5.01434ZM16.9233 23.3812C14.0515 21.1502 12.6587 20.4152 12.0832 20.4469C11.5455 20.4787 11.6423 21.0867 11.7605 21.4832C11.8842 21.8744 12.0456 22.1441 12.2714 22.4877C12.4274 22.7151 12.535 23.0534 12.1155 23.3072C11.1905 23.8729 9.58251 23.1168 9.50717 23.0799C7.63577 21.9907 6.0708 20.5526 4.96829 18.586C3.90347 16.6931 3.28506 14.663 3.18284 12.4953C3.15595 11.972 3.3119 11.7868 3.83894 11.6918C4.53267 11.5649 5.24795 11.5383 5.94168 11.6388C8.87268 12.0618 11.368 13.3571 13.4599 15.4084C14.6538 16.5768 15.5572 17.9727 16.4877 19.3367C17.4771 20.7852 18.542 22.1652 19.8972 23.2966C20.3758 23.6931 20.7576 23.9944 21.1233 24.2166C20.0209 24.3381 18.1817 24.3647 16.9233 23.3812ZM18.3 14.6313C18.3 14.3986 18.4882 14.2136 18.7249 14.2136C18.7787 14.2136 18.8271 14.2241 18.8701 14.2399C18.9293 14.2612 18.9831 14.2929 19.0261 14.3404C19.1014 14.4145 19.1444 14.5201 19.1444 14.6312C19.1444 14.8638 18.9562 15.0488 18.7196 15.0488C18.4831 15.0488 18.3 14.8639 18.3 14.6313ZM22.5754 16.799C22.3012 16.91 22.0269 17.0051 21.7634 17.0157C21.3547 17.0368 20.9083 16.8729 20.6663 16.672C20.2899 16.36 20.021 16.1857 19.9081 15.6411C19.8596 15.4084 19.8865 15.0489 19.9296 14.8428C20.0264 14.3986 19.9188 14.1132 19.6016 13.854C19.3434 13.6425 19.0153 13.5844 18.655 13.5844C18.5205 13.5844 18.3969 13.5262 18.3055 13.4787C18.1549 13.4047 18.0313 13.2196 18.1495 12.9923C18.1871 12.9183 18.37 12.7385 18.4131 12.7068C18.9025 12.4318 19.4672 12.5218 19.9888 12.728C20.4729 12.9236 20.8385 13.2831 21.3655 13.7906C21.9033 14.4039 22.0001 14.5732 22.3066 15.0331C22.5487 15.3926 22.7692 15.7626 22.9197 16.1857C23.0112 16.45 22.8927 16.6668 22.5754 16.799Z" fill="#4D6BFE"/>
</svg>
