<svg width="31" height="33" viewBox="0 0 31 33" fill="none" xmlns="http://www.w3.org/2000/svg">
<path d="M10.4541 10.0252C10.4473 10.0252 10.4406 10.0252 10.4339 10.0253L10.4062 12.3136C10.4126 12.3135 10.4189 12.3135 10.4252 12.3135C11.9265 12.3135 13.0911 13.501 15.6222 17.7783L15.7765 18.0386L15.7866 18.0557L17.2035 15.9229L17.1937 15.9064C16.8602 15.3624 16.5399 14.8618 16.2326 14.4047C15.8764 13.875 15.5356 13.4019 15.2049 12.9795C13.5305 10.8406 12.1298 10.0252 10.4541 10.0252Z" fill="url(#paint0_linear_9401_65)"/>
<path d="M10.4328 10.0253C8.74886 10.034 7.26018 11.1264 6.18522 12.7979C6.18207 12.8028 6.17892 12.8077 6.17578 12.8126L8.14899 13.8901C8.1522 13.8852 8.1554 13.8804 8.15862 13.8755C8.78634 12.9273 9.56751 12.3226 10.4052 12.3136C10.4115 12.3135 10.4178 12.3135 10.4241 12.3135L10.453 10.0252C10.4462 10.0252 10.4395 10.0252 10.4328 10.0253Z" fill="url(#paint1_linear_9401_65)"/>
<path d="M6.18689 12.7993C6.18376 12.8041 6.1806 12.809 6.17745 12.814C5.47109 13.9171 4.94451 15.2708 4.65994 16.7311C4.6587 16.7375 4.65747 16.7438 4.65625 16.7501L6.87307 17.2749C6.87423 17.2685 6.8754 17.2622 6.87657 17.2558C7.11352 15.9724 7.56464 14.7821 8.15066 13.8914C8.15386 13.8865 8.15708 13.8817 8.1603 13.8768L6.18689 12.7993Z" fill="url(#paint2_linear_9401_65)"/>
<path d="M6.87409 17.2566L4.65745 16.7319C4.65622 16.7382 4.65499 16.7445 4.65376 16.7509C4.49859 17.554 4.41964 18.3701 4.41798 19.1882C4.41797 19.1948 4.41797 19.2014 4.41797 19.208L6.69142 19.412C6.69124 19.4054 6.69104 19.3988 6.69089 19.3922C6.68976 19.3447 6.6892 19.2967 6.68918 19.2479C6.69032 18.5863 6.75103 17.9262 6.87059 17.2756C6.87174 17.2693 6.87291 17.2629 6.87409 17.2566Z" fill="url(#paint3_linear_9401_65)"/>
<path d="M6.76055 20.1205C6.71977 19.8854 6.69666 19.6475 6.69142 19.4089C6.69124 19.4023 6.69104 19.3958 6.69089 19.3891L4.41798 19.1851C4.41797 19.1917 4.41797 19.1983 4.41797 19.2049C4.41797 19.7141 4.46029 20.192 4.54255 20.6324C4.54373 20.6388 4.5449 20.6451 4.54611 20.6514L6.76399 20.1396C6.76283 20.1333 6.76169 20.1269 6.76055 20.1205Z" fill="url(#paint4_linear_9401_65)"/>
<path d="M7.27893 21.3038C7.03155 21.0329 6.85647 20.6422 6.76442 20.1424C6.76325 20.1361 6.76213 20.1297 6.76099 20.1234L4.54297 20.6353C4.54416 20.6416 4.54533 20.6479 4.54653 20.6542C4.71418 21.5373 5.04296 22.2732 5.51381 22.83C5.51799 22.8349 5.5222 22.8399 5.52641 22.8448L7.29216 21.3181C7.28774 21.3134 7.2833 21.3086 7.27893 21.3038Z" fill="url(#paint5_linear_9401_65)"/>
<path d="M13.8518 14.9722C12.5152 17.029 11.7055 18.319 11.7055 18.319C9.9251 21.1189 9.30916 21.7465 8.31789 21.7465C7.90425 21.7465 7.5587 21.5988 7.29397 21.3163C7.28956 21.3116 7.28513 21.3068 7.28076 21.3021L5.51562 22.8282C5.51981 22.8331 5.52401 22.8381 5.52823 22.843C6.17836 23.6033 7.09602 24.0252 8.23128 24.0252C9.94883 24.0252 11.1841 23.2128 13.3801 19.3617C13.3801 19.3617 14.2955 17.7399 14.9253 16.6228C14.5352 15.9909 14.1802 15.4439 13.8518 14.9722Z" fill="#0082FB"/>
<path d="M16.2323 11.7277C16.2278 11.7325 16.2232 11.7374 16.2187 11.7422C15.8677 12.1174 15.5308 12.5364 15.2031 12.9809C15.5338 13.4033 15.8752 13.8774 16.2315 14.407C16.6514 13.7567 17.0434 13.2301 17.4276 12.8264C17.4322 12.8216 17.4367 12.817 17.4412 12.8122L16.2323 11.7277Z" fill="url(#paint6_linear_9401_65)"/>
<path d="M22.7213 11.5243C21.7891 10.5795 20.6778 10.0252 19.4897 10.0252C18.2367 10.0252 17.1829 10.714 16.2324 11.7259C16.2278 11.7307 16.2232 11.7356 16.2188 11.7404L17.4277 12.8246C17.4323 12.8198 17.4367 12.8152 17.4413 12.8104C18.0675 12.157 18.6735 11.8307 19.3453 11.8307C20.0684 11.8307 20.7452 12.1722 21.3314 12.7708C21.3359 12.7755 21.3405 12.7802 21.3451 12.7849L22.7352 11.5383C22.7306 11.5336 22.7259 11.529 22.7213 11.5243Z" fill="#0082FB"/>
<path d="M25.4127 18.8844C25.3605 15.851 24.3024 13.1392 22.7319 11.5378C22.7272 11.5331 22.7226 11.5284 22.7179 11.5237L21.3281 12.7703C21.3327 12.775 21.3373 12.7796 21.3419 12.7843C22.5233 14.0019 23.3338 16.2666 23.4075 18.8838C23.4076 18.8903 23.4077 18.8969 23.408 18.9035L25.413 18.9042C25.413 18.8976 25.4128 18.891 25.4127 18.8844Z" fill="url(#paint7_linear_9401_65)"/>
<path d="M25.418 18.9063C25.418 18.8997 25.4179 18.8931 25.4177 18.8865L23.4125 18.8859C23.4127 18.8925 23.4128 18.899 23.4131 18.9056C23.4163 19.0285 23.4179 19.152 23.4179 19.2764C23.4179 19.9899 23.3118 20.5668 23.0957 20.9832C23.0925 20.9894 23.0891 20.9956 23.0859 21.0017L24.5809 22.5616C24.5847 22.5559 24.5883 22.5503 24.592 22.5446C25.1347 21.7044 25.4197 20.5373 25.4197 19.1219C25.4197 19.0498 25.4191 18.978 25.418 18.9063Z" fill="url(#paint8_linear_9401_65)"/>
<path d="M23.0936 20.98C23.0904 20.9861 23.0871 20.9923 23.0839 20.9985C22.897 21.3495 22.63 21.5836 22.2812 21.686L22.9627 23.8409C23.053 23.8101 23.1408 23.7756 23.2263 23.7373C23.2519 23.7259 23.2773 23.7142 23.3024 23.7021C23.3168 23.6951 23.3313 23.6881 23.3456 23.6809C23.7962 23.4556 24.1771 23.1232 24.4851 22.695C24.504 22.6689 24.5226 22.6425 24.5407 22.6157C24.5537 22.5967 24.5664 22.5777 24.5789 22.5584C24.5827 22.5527 24.5863 22.5471 24.59 22.5414L23.0936 20.98Z" fill="url(#paint9_linear_9401_65)"/>
<path d="M21.8488 21.7444C21.6204 21.7444 21.4187 21.7103 21.2213 21.6218L20.5234 23.828C20.9157 23.9624 21.3342 24.023 21.8008 24.023C22.2307 24.023 22.6253 23.9585 22.9831 23.8341L22.3017 21.6799C22.1549 21.7241 22.0022 21.7458 21.8488 21.7444Z" fill="url(#paint10_linear_9401_65)"/>
<path d="M20.4508 20.9923C20.4465 20.9873 20.4422 20.9823 20.4378 20.9773L18.832 22.6527C18.8366 22.6575 18.8411 22.6623 18.8455 22.6671C19.4035 23.2637 19.9363 23.6337 20.5405 23.8368L21.2378 21.6322C20.9833 21.5225 20.7369 21.3236 20.4508 20.9923Z" fill="url(#paint11_linear_9401_65)"/>
<path d="M20.4443 20.9756C19.9627 20.4137 19.3668 19.4781 18.4296 17.9651L17.2082 15.9216L17.1984 15.9051L15.7812 18.0373L15.7913 18.0543L16.6568 19.5149C17.4956 20.9232 18.1791 21.9421 18.8385 22.651C18.8431 22.6558 18.8476 22.6607 18.852 22.6654L20.4572 20.9906C20.4529 20.9857 20.4486 20.9807 20.4443 20.9756Z" fill="url(#paint12_linear_9401_65)"/>
<defs>
<linearGradient id="paint0_linear_9401_65" x1="16.2617" y1="17.1883" x2="11.5384" y2="11.0191" gradientUnits="userSpaceOnUse">
<stop offset="0.0006" stop-color="#0867DF"/>
<stop offset="0.4539" stop-color="#0668E1"/>
<stop offset="0.8591" stop-color="#0064E0"/>
</linearGradient>
<linearGradient id="paint1_linear_9401_65" x1="7.10263" y1="13.1824" x2="10.3352" y2="10.7362" gradientUnits="userSpaceOnUse">
<stop offset="0.1323" stop-color="#0064DF"/>
<stop offset="0.9988" stop-color="#0064E0"/>
</linearGradient>
<linearGradient id="paint2_linear_9401_65" x1="5.73738" y1="16.7882" x2="7.03826" y2="13.5241" gradientUnits="userSpaceOnUse">
<stop offset="0.0147" stop-color="#0072EC"/>
<stop offset="0.6881" stop-color="#0064DF"/>
</linearGradient>
<linearGradient id="paint3_linear_9401_65" x1="5.55922" y1="19.1491" x2="5.70987" y2="17.1539" gradientUnits="userSpaceOnUse">
<stop offset="0.0731" stop-color="#007CF6"/>
<stop offset="0.9943" stop-color="#0072EC"/>
</linearGradient>
<linearGradient id="paint4_linear_9401_65" x1="5.64154" y1="20.2298" x2="5.53379" y2="19.4305" gradientUnits="userSpaceOnUse">
<stop offset="0.0731" stop-color="#007FF9"/>
<stop offset="1" stop-color="#007CF6"/>
</linearGradient>
<linearGradient id="paint5_linear_9401_65" x1="5.57911" y1="20.4426" x2="6.24991" y2="21.8608" gradientUnits="userSpaceOnUse">
<stop offset="0.0731" stop-color="#007FF9"/>
<stop offset="1" stop-color="#0082FB"/>
</linearGradient>
<linearGradient id="paint6_linear_9401_65" x1="15.8349" y1="13.5726" x2="16.7208" y2="12.3513" gradientUnits="userSpaceOnUse">
<stop offset="0.2799" stop-color="#007FF8"/>
<stop offset="0.9141" stop-color="#0082FB"/>
</linearGradient>
<linearGradient id="paint7_linear_9401_65" x1="22.5387" y1="11.9839" x2="24.3953" y2="18.7915" gradientUnits="userSpaceOnUse">
<stop stop-color="#0082FB"/>
<stop offset="0.9995" stop-color="#0081FA"/>
</linearGradient>
<linearGradient id="paint8_linear_9401_65" x1="24.8349" y1="19.0572" x2="23.6609" y2="21.422" gradientUnits="userSpaceOnUse">
<stop offset="0.0619" stop-color="#0081FA"/>
<stop offset="1" stop-color="#0080F9"/>
</linearGradient>
<linearGradient id="paint9_linear_9401_65" x1="22.7366" y1="22.6771" x2="23.8307" y2="21.9343" gradientUnits="userSpaceOnUse">
<stop stop-color="#027AF3"/>
<stop offset="1" stop-color="#0080F9"/>
</linearGradient>
<linearGradient id="paint10_linear_9401_65" x1="21.026" y1="22.8224" x2="22.5431" y2="22.8224" gradientUnits="userSpaceOnUse">
<stop stop-color="#0377EF"/>
<stop offset="0.9994" stop-color="#0279F1"/>
</linearGradient>
<linearGradient id="paint11_linear_9401_65" x1="19.7053" y1="21.9867" x2="20.7978" y2="22.6273" gradientUnits="userSpaceOnUse">
<stop offset="0.0019" stop-color="#0471E9"/>
<stop offset="1" stop-color="#0377EF"/>
</linearGradient>
<linearGradient id="paint12_linear_9401_65" x1="16.3848" y1="17.2381" x2="19.8925" y2="21.6342" gradientUnits="userSpaceOnUse">
<stop offset="0.2765" stop-color="#0867DF"/>
<stop offset="1" stop-color="#0471E9"/>
</linearGradient>
</defs>
</svg>
