<svg width="37" height="33" viewBox="0 0 37 33" fill="none" xmlns="http://www.w3.org/2000/svg">
<path d="M16.9853 1.39536C13.582 1.39536 10.5585 3.58343 9.50486 6.81484L9.125 9.03385V16.3887C9.125 16.7566 9.31407 17.0831 9.63034 17.2722L15.5517 20.6844V10.5774H15.5535V10.0978L21.5471 6.63608C22.1266 6.30056 22.7578 6.07132 23.4115 5.9515L22.8345 3.99423C21.346 2.3304 19.2163 1.38505 16.9853 1.39536ZM16.9853 3.41499L16.9749 3.4253C18.3448 3.4253 19.6615 3.89798 20.7151 4.77286C20.6722 4.79349 20.588 4.84677 20.5261 4.87771L14.3297 8.44601C14.0134 8.62477 13.8243 8.96166 13.8243 9.32949V17.7054L11.1584 16.1687V9.24527C11.1567 6.02935 13.7642 3.42014 16.9853 3.41499Z" fill="white"/>
<path d="M31.266 7.73908C29.5644 4.79176 26.1577 3.26742 22.8324 3.97064L20.7207 4.75117L14.3512 8.42861C14.0326 8.61253 13.8443 8.93956 13.8387 9.30799L13.8444 16.1421L22.5973 11.0886L22.5982 11.0901L23.0135 10.8503L29.0083 14.3101C29.5886 14.6442 30.1028 15.0762 30.5334 15.5824L31.9399 14.1041C32.6366 11.9831 32.3905 9.66606 31.266 7.73908ZM29.5169 8.74889L29.5028 8.74512C30.1878 9.93148 30.4368 11.3081 30.2059 12.658C30.1666 12.6311 30.0783 12.5848 30.0206 12.5467L23.8321 8.96459C23.5192 8.78007 23.1329 8.78478 22.8143 8.96869L15.5606 13.1566L15.5584 10.0796L21.5543 6.61784C24.3385 5.00839 27.9019 5.96194 29.5169 8.74889Z" fill="white"/>
<path d="M32.9135 23.2756C34.6152 20.3283 34.232 16.6159 31.9603 14.0877L30.2285 12.6492L23.859 8.97176C23.5404 8.78785 23.163 8.7883 22.8412 8.96766L16.9255 12.3897L25.6784 17.4431L25.6776 17.4446L26.0929 17.6844L26.094 24.6059C26.0948 25.2755 25.9777 25.9368 25.7547 26.5628L27.7382 27.0417C29.9234 26.5845 31.8069 25.2129 32.9135 23.2756ZM31.1645 22.2658L31.1607 22.2517C30.4758 23.4381 29.4081 24.342 28.1236 24.817C28.1272 24.7695 28.1232 24.6699 28.1273 24.6008L28.1353 17.4505C28.1386 17.0872 27.9414 16.755 27.6228 16.5711L20.3691 12.3832L23.0328 10.8427L29.0287 14.3045C31.8147 15.9109 32.7706 19.4737 31.1645 22.2658Z" fill="white"/>
<path d="M20.2765 32.4684C23.6797 32.4684 26.7032 30.2803 27.7569 27.0489L28.1367 24.8299L28.1367 17.475C28.1367 17.1072 27.9476 16.7806 27.6314 16.5915L21.71 13.1794L21.71 23.2864H21.7083V23.766L15.7147 27.2277C15.1351 27.5632 14.5039 27.7924 13.8502 27.9123L14.4272 29.8695C15.9158 31.5334 18.0454 32.4787 20.2765 32.4684ZM20.2765 30.4488L20.2868 30.4385C18.9169 30.4385 17.6002 29.9658 16.5466 29.0909C16.5895 29.0703 16.6738 29.017 16.7356 28.9861L22.9321 25.4178C23.2483 25.239 23.4374 24.9021 23.4374 24.5343V16.1584L26.1033 17.695V24.6185C26.105 27.8344 23.4975 30.4436 20.2765 30.4488Z" fill="white"/>
<path d="M6.00353 26.1247C7.70518 29.072 11.1118 30.5964 14.4372 29.8931L16.5488 29.1126L22.9184 25.4352C23.2369 25.2512 23.4252 24.9242 23.4308 24.5558L23.4251 17.7216L14.6722 22.7751L14.6713 22.7737L14.256 23.0134L8.26125 19.5537C7.68093 19.2196 7.16678 18.7876 6.73618 18.2814L5.32963 19.7597C4.63296 21.8807 4.87907 24.1977 6.00353 26.1247ZM7.75259 25.1149L7.76668 25.1187C7.08173 23.9323 6.83276 22.5557 7.06361 21.2058C7.10296 21.2327 7.19122 21.279 7.24895 21.3171L13.4374 24.8992C13.7504 25.0837 14.1367 25.079 14.4552 24.8951L21.709 20.7071L21.7111 23.7842L15.7152 27.2459C12.931 28.8554 9.3676 27.9018 7.75259 25.1149Z" fill="white"/>
<path d="M4.35599 10.5882C2.65434 13.5355 3.03755 17.2479 5.30922 19.7761L7.04102 21.2146L13.4106 24.892C13.7291 25.0759 14.1065 25.0755 14.4284 24.8961L20.3441 21.4741L11.5911 16.4206L11.592 16.4191L11.1767 16.1794L11.1755 9.25791C11.1747 8.58828 11.2918 7.92699 11.5149 7.30099L9.5313 6.82206C7.34611 7.27923 5.46258 8.65087 4.35599 10.5882ZM6.10504 11.598L6.10882 11.6121C6.79377 10.4257 7.86145 9.5218 9.14595 9.04676C9.14233 9.09429 9.14636 9.19387 9.14222 9.26292L9.13426 16.4133C9.13093 16.7766 9.32815 17.1088 9.64671 17.2927L16.9005 21.4806L14.2367 23.021L8.2408 19.5593C5.45486 17.9528 4.49896 14.3901 6.10504 11.598Z" fill="white"/>
</svg>
