<svg width="33" height="33" viewBox="0 0 33 33" fill="none" xmlns="http://www.w3.org/2000/svg">
<path fill-rule="evenodd" clip-rule="evenodd" d="M0.84375 7.78902C0.84375 4.00193 3.91379 0.931885 7.7009 0.931885H25.9866C29.7737 0.931885 32.8438 4.00193 32.8438 7.78903V26.0747C32.8438 29.8618 29.7737 32.9319 25.9866 32.9319H7.70089C3.91379 32.9319 0.84375 29.8618 0.84375 26.0747V7.78902Z" fill="black"/>
<path fill-rule="evenodd" clip-rule="evenodd" d="M7.07031 13.9492L16.9123 28.0051H21.2868L11.4445 13.9492H7.07031Z" fill="white"/>
<path fill-rule="evenodd" clip-rule="evenodd" d="M7.06641 28.0052L11.4421 21.7561L13.6307 24.8821L11.4438 28.0052H7.06641Z" fill="white"/>
<path fill-rule="evenodd" clip-rule="evenodd" d="M22.2867 6.26522L14.7227 17.0678L16.9113 20.1935L26.664 6.26522H22.2867Z" fill="white"/>
<path fill-rule="evenodd" clip-rule="evenodd" d="M23.0781 28.0048V12.9486L26.6639 7.82783V28.0048H23.0781Z" fill="white"/>
</svg>
