<?xml version="1.0" encoding="utf-8"?>
<svg version="1.1" xmlns="http://www.w3.org/2000/svg" x="0px" y="0px"
	 viewBox="0 0 1000 1000" xml:space="preserve">
  <rect width="1000" height="1000" fill="#0B0B0F"/>
  <g>
    <path fill="#f9f9f9" d="M993.53,689.54v199.19c0,57.78-46.99,104.79-104.76,104.79H689.55v-76h199.22c15.86,0,28.76-12.91,28.76-28.79V689.54H993.53z"/>
    <path fill="#f9f9f9" d="M310.46,917.53v76H111.24c-57.76,0-104.76-47.01-104.76-104.79V689.54h76v199.19c0,15.88,12.9,28.79,28.76,28.79H310.46z"/>
    <path fill="#f9f9f9" d="M310.46,6.48v76H111.24c-15.86,0-28.76,12.9-28.76,28.76v199.22h-76V111.24c0-57.77,47-104.76,104.76-104.76H310.46z"/>
    <path fill="#f9f9f9" d="M993.53,111.24v199.22h-76V111.24c0-15.86-12.9-28.76-28.76-28.76H689.55v-76h199.22C946.54,6.48,993.53,53.47,993.53,111.24z"/>

    <path fill="#f9f9f9" d="M860.77,321.99L652.76,201.91c-10.93-6.34-24-6.35-34.94-0.04c-10.96,6.32-17.51,17.64-17.51,30.28v240.22
      c0,12.64,6.55,23.96,17.51,30.27c5.46,3.16,11.46,4.73,17.45,4.73c6,0,12-1.58,17.46-4.75l208.04-120.09
      c10.95-6.33,17.49-17.64,17.49-30.27S871.71,328.3,860.77,321.99z M713.89,400.59c-26.54,0-48.06-21.52-48.06-48.06
      c0-26.54,21.52-48.06,48.06-48.06c26.54,0,48.06,21.52,48.06,48.06C761.94,379.07,740.43,400.59,713.89,400.59z"/>

    <path fill="#f9f9f9" d="M375.58,232.79v239.46c0,19.07-15.51,34.59-34.58,34.59h-73.87c-19.07,0-34.58-15.52-34.58-34.59V232.79
      c0-19.07,15.51-34.58,34.58-34.58H341C360.07,198.22,375.58,213.73,375.58,232.79z"/>

    <path fill="#f9f9f9" d="M627.14,644.73c-4.36-11.9-14.7-20.68-27.1-23.06c-32.31-7.97-65.6-12.05-98.96-12.14
      c-33.44-0.05-66.83,3.83-99.2,11.64c-4.44,0.96-21.77,5.77-28.59,23.19l-0.06,0.15c-3.74,9.74-2.61,17.94-1.03,23.03
      c1.59,5.22,4.37,9.9,8.25,13.92L462,765.78v58.15c0,18.64,13.15,34.25,31.4,37.42c1.28,0.28,2.3,0.38,2.86,0.43
      c1.24,0.12,2.47,0.18,3.74,0.18c2.51,0,4.93-0.23,7.19-0.68l1.95-0.47c17.01-4.15,28.89-19.32,28.89-36.88v-57.91
      l81.79-84.56l0.65-0.71C629.03,670.87,631.59,657.1,627.14,644.73z"/>
  </g>
</svg>






